<svg width="40" height="40" viewBox="0 0 40 40" fill="none" xmlns="http://www.w3.org/2000/svg">
<g filter="url(#filter0_d_1068_3944)">
<rect x="10" y="8" width="20" height="20" rx="10" fill="#1D9BF0"/>
<path d="M21.6817 13.813V13.8112H22.1506L22.3219 13.8454C22.4361 13.8676 22.5398 13.8967 22.633 13.9327C22.7262 13.9687 22.8164 14.0108 22.9035 14.0588C22.9907 14.1068 23.0697 14.1557 23.1407 14.2056C23.211 14.2548 23.2741 14.307 23.33 14.3622C23.3853 14.4181 23.4716 14.4325 23.5888 14.4055C23.706 14.3785 23.8323 14.3409 23.9675 14.2929C24.1028 14.2449 24.2366 14.1909 24.3688 14.1308C24.5011 14.0708 24.5816 14.0327 24.6105 14.0165C24.6387 13.9997 24.6538 13.9907 24.6556 13.9894L24.6573 13.9867L24.6664 13.9822L24.6754 13.9777L24.6844 13.9732L24.6934 13.9687L24.6952 13.966L24.6979 13.9642L24.7006 13.9624L24.7024 13.9597L24.7115 13.957L24.7205 13.9552L24.7187 13.9687L24.716 13.9822L24.7115 13.9958L24.7069 14.0093L24.7024 14.0183L24.6979 14.0273L24.6934 14.0408C24.6904 14.0498 24.6874 14.0618 24.6844 14.0768C24.6814 14.0918 24.6528 14.1518 24.5987 14.2569C24.5446 14.3619 24.477 14.4685 24.3959 14.5766C24.3147 14.6846 24.242 14.7662 24.1776 14.8215C24.1127 14.8773 24.0697 14.9163 24.0487 14.9385C24.0277 14.9614 24.0021 14.9824 23.972 15.0016L23.927 15.0313L23.9179 15.0358L23.9089 15.0403L23.9071 15.043L23.9044 15.0448L23.9017 15.0466L23.8999 15.0493L23.8909 15.0538L23.8819 15.0583L23.8801 15.061L23.8774 15.0628L23.8747 15.0646L23.8729 15.0673L23.8711 15.07L23.8683 15.0718L23.8656 15.0736L23.8638 15.0763H23.9089L24.1614 15.0223C24.3297 14.9863 24.4905 14.9427 24.6438 14.8917L24.8873 14.8107L24.9143 14.8017L24.9279 14.7972L24.9369 14.7927L24.9459 14.7882L24.9549 14.7837L24.9639 14.7792L24.982 14.7765L25 14.7747V14.7927L24.9955 14.7945L24.991 14.7972L24.9892 14.7999L24.9865 14.8017L24.9838 14.8035L24.982 14.8062L24.9802 14.8089L24.9775 14.8107L24.9748 14.8125L24.9729 14.8152L24.9712 14.8179L24.9684 14.8197L24.9639 14.8287L24.9594 14.8377L24.9567 14.8395C24.9555 14.8413 24.9173 14.8923 24.8422 14.9926C24.7671 15.0934 24.7265 15.1444 24.7205 15.1456C24.7145 15.1475 24.706 15.1565 24.6952 15.1727C24.685 15.1895 24.6213 15.2564 24.5041 15.3735C24.3868 15.4905 24.272 15.5947 24.1596 15.6859C24.0466 15.7778 23.9895 15.8906 23.9883 16.0245C23.9865 16.1578 23.9796 16.3085 23.9675 16.4765C23.9555 16.6446 23.933 16.8262 23.8999 17.0213C23.8669 17.2164 23.8158 17.437 23.7466 17.6832C23.6775 17.9293 23.5933 18.1694 23.4941 18.4035C23.3949 18.6377 23.2913 18.8478 23.183 19.0339C23.0748 19.22 22.9757 19.3775 22.8855 19.5066C22.7953 19.6357 22.7036 19.7572 22.6105 19.8713C22.5173 19.9854 22.3995 20.1138 22.257 20.2567C22.1139 20.399 22.0358 20.477 22.0226 20.4908C22.0087 20.504 21.9498 20.5533 21.8458 20.6385C21.7424 20.7243 21.6312 20.8102 21.5122 20.896C21.3938 20.9813 21.2849 21.0524 21.1858 21.1094C21.0866 21.1665 20.9669 21.2316 20.8269 21.3048C20.6874 21.3787 20.5365 21.4471 20.3742 21.5102C20.2119 21.5732 20.0406 21.6317 19.8602 21.6857C19.6799 21.7398 19.5056 21.7818 19.3372 21.8118C19.1689 21.8418 18.9781 21.8673 18.7647 21.8883L18.4445 21.9199V21.9244H17.8584V21.9199L17.7818 21.9154C17.7307 21.9124 17.6886 21.9094 17.6555 21.9064C17.6225 21.9034 17.4977 21.8868 17.2813 21.8568C17.0649 21.8268 16.8951 21.7968 16.7719 21.7668C16.6486 21.7368 16.4653 21.6797 16.2218 21.5957C15.9784 21.5117 15.7701 21.4267 15.5969 21.3409C15.4244 21.2556 15.3162 21.2016 15.2723 21.1788C15.229 21.1566 15.1803 21.129 15.1262 21.0959L15.0451 21.0464L15.0433 21.0437L15.0406 21.0419L15.0379 21.0401L15.0361 21.0374L15.0271 21.0329L15.018 21.0284L15.0162 21.0257L15.0135 21.0239L15.0108 21.0221L15.009 21.0194L15.0072 21.0167L15.0045 21.0149H15V20.9969L15.009 20.9987L15.018 21.0014L15.0586 21.0059C15.0857 21.0089 15.1593 21.0134 15.2795 21.0194C15.3998 21.0254 15.5275 21.0254 15.6628 21.0194C15.798 21.0134 15.9363 20.9999 16.0775 20.9789C16.2188 20.9579 16.3856 20.9218 16.578 20.8708C16.7704 20.8198 16.9471 20.7592 17.1082 20.6889C17.2687 20.6181 17.3829 20.5653 17.4509 20.5304C17.5182 20.4962 17.621 20.4326 17.7592 20.3395L17.9666 20.2L17.9684 20.1973L17.9711 20.1955L17.9739 20.1937L17.9757 20.191L17.9775 20.1883L17.9802 20.1865L17.9829 20.1847L17.9847 20.182L17.9937 20.1793L18.0027 20.1775L18.0045 20.1685L18.0072 20.1595L18.0099 20.1576L18.0117 20.1549L17.9396 20.1504C17.8915 20.1474 17.8449 20.1444 17.7998 20.1414C17.7547 20.1384 17.6841 20.1249 17.5879 20.1009C17.4917 20.0769 17.388 20.0409 17.2768 19.9929C17.1656 19.9448 17.0574 19.8878 16.9522 19.8218C16.847 19.7557 16.771 19.7008 16.7241 19.657C16.6778 19.6138 16.6177 19.5525 16.5437 19.4733C16.4704 19.3935 16.4067 19.3115 16.3526 19.2275C16.2985 19.1434 16.2468 19.0465 16.1975 18.9366L16.1226 18.7727L16.1181 18.7592L16.1136 18.7457L16.1109 18.7367L16.1091 18.7277L16.1226 18.7295L16.1362 18.7322L16.2353 18.7457C16.3015 18.7547 16.4052 18.7577 16.5464 18.7547C16.6877 18.7517 16.7854 18.7457 16.8395 18.7367C16.8936 18.7277 16.9267 18.7217 16.9387 18.7187L16.9567 18.7142L16.9793 18.7097L17.0018 18.7052L17.0036 18.7025L17.0063 18.7007L17.009 18.6989L17.0108 18.6962L16.9928 18.6917L16.9748 18.6872L16.9567 18.6827L16.9387 18.6782L16.9206 18.6737C16.9086 18.6707 16.8876 18.6647 16.8575 18.6557C16.8275 18.6467 16.7463 18.6136 16.6141 18.5566C16.4818 18.4996 16.3766 18.4441 16.2985 18.39C16.2201 18.3358 16.1454 18.2766 16.0748 18.2126C16.0045 18.1478 15.9273 18.0644 15.8431 17.9623C15.7589 17.8603 15.6838 17.7417 15.6177 17.6066C15.5516 17.4716 15.502 17.3425 15.4689 17.2194C15.436 17.0971 15.4142 16.972 15.404 16.8457L15.3877 16.6566L15.3968 16.6584L15.4058 16.6611L15.4148 16.6656L15.4238 16.6701L15.4328 16.6746L15.4418 16.6791L15.5816 16.7422C15.6748 16.7842 15.7905 16.8202 15.9288 16.8502C16.067 16.8802 16.1497 16.8968 16.1767 16.8998L16.2173 16.9043H16.2985L16.2967 16.9016L16.294 16.8998L16.2913 16.898L16.2894 16.8953L16.2877 16.8926L16.2849 16.8908L16.2822 16.889L16.2804 16.8863L16.2714 16.8818L16.2624 16.8772L16.2606 16.8745L16.2579 16.8727L16.2552 16.8709L16.2534 16.8682L16.2444 16.8637L16.2353 16.8592L16.2336 16.8565C16.2317 16.8553 16.2059 16.8361 16.156 16.7989C16.1067 16.7611 16.055 16.7122 16.0009 16.6521C15.9468 16.5921 15.8927 16.5291 15.8386 16.463C15.7844 16.3969 15.7361 16.326 15.6943 16.2514C15.6522 16.1764 15.6078 16.0809 15.5609 15.9651C15.5146 15.8498 15.4794 15.7337 15.4554 15.6166C15.4313 15.4995 15.4178 15.384 15.4148 15.2699C15.4118 15.1559 15.4148 15.0583 15.4238 14.9773C15.4328 14.8962 15.4509 14.8047 15.4779 14.7026C15.505 14.6006 15.544 14.4925 15.5951 14.3785L15.6718 14.2074L15.6763 14.1939L15.6808 14.1803L15.6835 14.1785L15.6853 14.1758L15.6871 14.1731L15.6898 14.1713L15.6925 14.1731L15.6943 14.1758L15.6961 14.1785L15.6988 14.1803L15.7015 14.1821L15.7033 14.1849L15.7051 14.1876L15.7078 14.1894L15.7124 14.1984L15.7169 14.2074L15.7196 14.2092L15.7214 14.2119L15.8431 14.3469C15.9243 14.437 16.0204 14.5375 16.1317 14.6486C16.2429 14.7596 16.3045 14.8173 16.3165 14.8215C16.3285 14.8263 16.3436 14.8401 16.3616 14.8629C16.3796 14.8851 16.4397 14.9382 16.5419 15.0223C16.6441 15.1063 16.7779 15.2039 16.9432 15.3149C17.1085 15.426 17.2919 15.5356 17.4932 15.6436C17.6946 15.7517 17.911 15.8492 18.1425 15.9363C18.3739 16.0233 18.5362 16.0803 18.6294 16.1073C18.7226 16.1344 18.8819 16.1689 19.1073 16.2109C19.3327 16.2529 19.5026 16.2799 19.6168 16.2919C19.731 16.3039 19.8091 16.3109 19.8512 16.3127L19.9143 16.3145L19.9125 16.3009L19.9098 16.2874L19.8918 16.1749C19.8798 16.0998 19.8738 15.9948 19.8738 15.8597C19.8738 15.7246 19.8843 15.6001 19.9053 15.486C19.9264 15.372 19.9579 15.2564 20 15.1393C20.0421 15.0223 20.0833 14.9283 20.1235 14.8575C20.1644 14.7873 20.2179 14.7071 20.284 14.6171C20.3502 14.527 20.4358 14.434 20.541 14.3379C20.6462 14.2419 20.7665 14.1563 20.9017 14.0813C21.037 14.0063 21.1617 13.9492 21.2759 13.9102C21.3901 13.8712 21.4863 13.8457 21.5645 13.8337C21.6426 13.8217 21.6817 13.8148 21.6817 13.813Z" fill="#FCFCFC"/>
</g>
<defs>
<filter id="filter0_d_1068_3944" x="0" y="0" width="40" height="40" filterUnits="userSpaceOnUse" color-interpolation-filters="sRGB">
<feFlood flood-opacity="0" result="BackgroundImageFix"/>
<feColorMatrix in="SourceAlpha" type="matrix" values="0 0 0 0 0 0 0 0 0 0 0 0 0 0 0 0 0 0 127 0" result="hardAlpha"/>
<feOffset dy="2"/>
<feGaussianBlur stdDeviation="5"/>
<feComposite in2="hardAlpha" operator="out"/>
<feColorMatrix type="matrix" values="0 0 0 0 0.0984896 0 0 0 0 0.364094 0 0 0 0 0.7625 0 0 0 0.07 0"/>
<feBlend mode="normal" in2="BackgroundImageFix" result="effect1_dropShadow_1068_3944"/>
<feBlend mode="normal" in="SourceGraphic" in2="effect1_dropShadow_1068_3944" result="shape"/>
</filter>
</defs>
</svg>
