<svg width="40" height="40" viewBox="0 0 40 40" fill="none" xmlns="http://www.w3.org/2000/svg">
<g filter="url(#filter0_d_1068_4013)">
<rect x="10" y="8" width="20" height="20" rx="10" fill="#FCFCFC"/>
<rect x="10.3" y="8.3" width="19.4" height="19.4" rx="9.7" stroke="#E9EAF3" stroke-width="0.6"/>
<path d="M25.2589 15.352C25.1956 15.1187 25.0724 14.906 24.9015 14.7351C24.7305 14.5642 24.5179 14.4409 24.2846 14.3776C23.4303 14.1444 19.9921 14.1444 19.9921 14.1444C19.9921 14.1444 16.5538 14.1513 15.6994 14.3845C15.4661 14.4478 15.2534 14.571 15.0825 14.742C14.9115 14.9129 14.7883 15.1256 14.725 15.3589C14.499 16.2133 14.499 17.9996 14.499 17.9996C14.499 17.9996 14.499 19.7859 14.7321 20.6471C14.7954 20.8804 14.9186 21.0931 15.0895 21.264C15.2605 21.435 15.4731 21.5582 15.7064 21.6215C16.5607 21.8547 19.999 21.8547 19.999 21.8547C19.999 21.8547 23.4374 21.8547 24.2918 21.6217C24.5251 21.5584 24.7378 21.4352 24.9087 21.2642C25.0796 21.0933 25.2029 20.8806 25.2661 20.6473C25.499 19.7929 25.499 17.9996 25.499 17.9996C25.499 17.9996 25.4921 16.2133 25.2589 15.352Z" fill="#FF0000"/>
<path d="M18.8976 19.6519L21.7499 17.9998L18.8975 16.3478L18.8976 19.6519Z" fill="#FCFCFC"/>
</g>
<defs>
<filter id="filter0_d_1068_4013" x="0" y="0" width="40" height="40" filterUnits="userSpaceOnUse" color-interpolation-filters="sRGB">
<feFlood flood-opacity="0" result="BackgroundImageFix"/>
<feColorMatrix in="SourceAlpha" type="matrix" values="0 0 0 0 0 0 0 0 0 0 0 0 0 0 0 0 0 0 127 0" result="hardAlpha"/>
<feOffset dy="2"/>
<feGaussianBlur stdDeviation="5"/>
<feComposite in2="hardAlpha" operator="out"/>
<feColorMatrix type="matrix" values="0 0 0 0 0.0984896 0 0 0 0 0.364094 0 0 0 0 0.7625 0 0 0 0.07 0"/>
<feBlend mode="normal" in2="BackgroundImageFix" result="effect1_dropShadow_1068_4013"/>
<feBlend mode="normal" in="SourceGraphic" in2="effect1_dropShadow_1068_4013" result="shape"/>
</filter>
</defs>
</svg>
