<svg width="13" height="13" viewBox="0 0 13 13" fill="none" xmlns="http://www.w3.org/2000/svg">
<path d="M11.0947 1.03017C10.9244 0.860573 10.7221 0.726406 10.4997 0.635416C10.2772 0.544425 10.0389 0.498415 9.79856 0.500042C9.55822 0.501669 9.32057 0.550901 9.09936 0.644895C8.87815 0.73889 8.67776 0.875782 8.50975 1.04767L1.64715 7.91037C1.3937 8.16383 1.21301 8.48074 1.12401 8.82796L0.542819 11.0953C0.467311 11.3899 0.735111 11.6576 1.02967 11.5821L3.29714 11.0005C3.64426 10.9115 3.96108 10.7308 4.21448 10.4774L11.0772 3.61463C11.2491 3.4467 11.386 3.24635 11.4801 3.02517C11.5741 2.804 11.6233 2.56637 11.625 2.32605C11.6266 2.08572 11.5806 1.84745 11.4895 1.62502C11.3985 1.40259 11.2643 1.20041 11.0947 1.03017Z" fill="#BABABA" stroke="#BABABA" stroke-linecap="round" stroke-linejoin="round"/>
</svg>
