<svg width="8" height="10" viewBox="0 0 8 10" fill="none" xmlns="http://www.w3.org/2000/svg">
<path d="M3.92872 0C2.88712 0.00118162 1.88852 0.415479 1.152 1.152C0.415479 1.88852 0.00118162 2.88712 0 3.92872C0 7.29046 3.57157 9.83074 3.72336 9.93789C3.78419 9.97839 3.85564 10 3.92872 10C4.00181 10 4.07326 9.97839 4.13409 9.93789C4.28588 9.83074 7.85745 7.29046 7.85745 3.92872C7.85627 2.88712 7.44197 1.88852 6.70545 1.152C5.96892 0.415479 4.97032 0.00118162 3.92872 0V0ZM3.92872 2.5001C4.21128 2.5001 4.48749 2.58388 4.72243 2.74086C4.95736 2.89784 5.14047 3.12096 5.2486 3.38201C5.35673 3.64306 5.38502 3.93031 5.3299 4.20744C5.27478 4.48456 5.13871 4.73912 4.93892 4.93892C4.73912 5.13871 4.48456 5.27478 4.20743 5.3299C3.93031 5.38502 3.64306 5.35673 3.38201 5.2486C3.12096 5.14047 2.89784 4.95736 2.74086 4.72243C2.58388 4.48749 2.5001 4.21128 2.5001 3.92872C2.5001 3.54983 2.65061 3.18645 2.91853 2.91853C3.18645 2.65061 3.54983 2.5001 3.92872 2.5001V2.5001Z" fill="#BABABA"/>
</svg>
